<svg id="Layer_1" data-name="Layer 1" xmlns="http://www.w3.org/2000/svg" viewBox="0 0 973.6 978.15"><defs><style>.cls-1{fill:none;stroke:#000;stroke-linecap:round;stroke-linejoin:round;stroke-width:0.71px;}</style></defs><title>Group_ALL</title><g id="LWPOLYLINE"><polygon class="cls-1" points="972.17 952.58 973.25 20.87 964.75 20.86 720.94 952.29 972.17 952.58"/></g><g id="LWPOLYLINE-2" data-name="LWPOLYLINE"><polygon class="cls-1" points="528.38 825.84 955.68 0.35 520.8 1.36 522.71 825.86 528.38 825.84"/></g><g id="LWPOLYLINE-3" data-name="LWPOLYLINE"><polygon class="cls-1" points="479.22 941.42 402.36 977.79 138.79 420.78 143.92 418.36 479.22 941.42"/></g><g id="LWPOLYLINE-4" data-name="LWPOLYLINE"><polygon class="cls-1" points="111.82 368.44 491.69 860.08 505.79 856.29 63.36 1.15 59.12 0.85 111.82 368.44"/></g><g id="LWPOLYLINE-5" data-name="LWPOLYLINE"><polygon class="cls-1" points="558.98 941.84 498.23 925.35 634.7 641.22 640.17 642.71 558.98 941.84"/></g><g id="LWPOLYLINE-6" data-name="LWPOLYLINE"><polygon class="cls-1" points="668.93 601.92 938 41.91 952.58 42.68 698.09 971.25 694 972.43 668.93 601.92"/></g><g id="LWPOLYLINE-7" data-name="LWPOLYLINE"><polygon class="cls-1" points="8.38 965.37 0.35 33.69 8.86 33.62 259.6 963.21 8.38 965.37"/></g><g id="LWPOLYLINE-8" data-name="LWPOLYLINE"><polygon class="cls-1" points="655.58 943.91 592.66 941.83 660.18 633.94 665.85 634.13 655.58 943.91"/></g><g id="LWPOLYLINE-9" data-name="LWPOLYLINE"><polygon class="cls-1" points="369.17 947.84 287.76 972.43 109.61 382.53 115.03 380.89 369.17 947.84"/></g><g id="LWPOLYLINE-10" data-name="LWPOLYLINE"><polygon class="cls-1" points="509.23 825.36 72.06 5.06 506.91 0.85 514.89 825.31 509.23 825.36"/></g></svg>