  0
SECTION
  2
HEADER
  9
$ACADVER
  1
AC1009
  9
$LUNITS
 70
2
  9
$LUPREC
 70
4
  9
$LTSCALE
 40
1.0
  9
$EXTMIN
 10
4.1414
 20
-348.2382
 30
0
  9
$EXTMAX
 10
347.3575
 20
-3.4203
 30
0
  0
ENDSEC
  0
SECTION
  2
TABLES
  0
TABLE
  2
LTYPE
 70
256
  0
ENDTAB
  0
TABLE
  2
LAYER
 70
1
  0
LAYER
  2
LAYER_1
 70
64
 62
7
  6
CONTINUOUS
  0
ENDTAB
  0
TABLE
  2
STYLE
 70
6
  0
STYLE
  2
STANDARD
 70
0
 40
0
 50
0
 71
0
 41
0
 42
0
  3
TXT
  4
BIGFONT
  0
ENDTAB
  0
ENDSEC
  0
SECTION
  2
BLOCKS
  0
BLOCK
  8
LAYER_1
  2
AIGNBL01030004
 70
64
 10
0
 20
0
 30
0
  3
AIGNBL01030004
  0
POLYLINE
  8
LAYER_1
 40
0.2469
 41
0.2469
 66
1
 10
0
 20
0
 30
0
 70
1
  0
VERTEX
  8
LAYER_1
 10
346.9768
 20
-339.3456
  0
VERTEX
  8
LAYER_1
 10
347.3575
 20
-10.6579
  0
VERTEX
  8
LAYER_1
 10
344.3575
 20
-10.6544
  0
VERTEX
  8
LAYER_1
 10
258.3475
 20
-339.2429
  0
SEQEND
  0
ENDBLK
  0
BLOCK
  8
LAYER_1
  2
AIGNBL01030006
 70
64
 10
0
 20
0
 30
0
  3
AIGNBL01030006
  0
POLYLINE
  8
LAYER_1
 40
0.2469
 41
0.2469
 66
1
 10
0
 20
0
 30
0
 70
1
  0
VERTEX
  8
LAYER_1
 10
190.4166
 20
-294.6339
  0
VERTEX
  8
LAYER_1
 10
341.1577
 20
-3.4203
  0
VERTEX
  8
LAYER_1
 10
187.7438
 20
-3.7752
  0
VERTEX
  8
LAYER_1
 10
188.4167
 20
-294.6385
  0
SEQEND
  0
ENDBLK
  0
BLOCK
  8
LAYER_1
  2
AIGNBL01030008
 70
64
 10
0
 20
0
 30
0
  3
AIGNBL01030008
  0
POLYLINE
  8
LAYER_1
 40
0.2469
 41
0.2469
 66
1
 10
0
 20
0
 30
0
 70
1
  0
VERTEX
  8
LAYER_1
 10
173.0759
 20
-335.4068
  0
VERTEX
  8
LAYER_1
 10
145.9585
 20
-348.2382
  0
VERTEX
  8
LAYER_1
 10
52.979
 20
-151.7385
  0
VERTEX
  8
LAYER_1
 10
54.7868
 20
-150.8831
  0
SEQEND
  0
ENDBLK
  0
BLOCK
  8
LAYER_1
  2
AIGNBL0103000A
 70
64
 10
0
 20
0
 30
0
  3
AIGNBL0103000A
  0
POLYLINE
  8
LAYER_1
 40
0.2469
 41
0.2469
 66
1
 10
0
 20
0
 30
0
 70
1
  0
VERTEX
  8
LAYER_1
 10
43.4631
 20
-133.2731
  0
VERTEX
  8
LAYER_1
 10
177.4747
 20
-306.7138
  0
VERTEX
  8
LAYER_1
 10
182.4485
 20
-305.3761
  0
VERTEX
  8
LAYER_1
 10
26.3698
 20
-3.7015
  0
VERTEX
  8
LAYER_1
 10
24.8736
 20
-3.5945
  0
SEQEND
  0
ENDBLK
  0
BLOCK
  8
LAYER_1
  2
AIGNBL0103000C
 70
64
 10
0
 20
0
 30
0
  3
AIGNBL0103000C
  0
POLYLINE
  8
LAYER_1
 40
0.2469
 41
0.2469
 66
1
 10
0
 20
0
 30
0
 70
1
  0
VERTEX
  8
LAYER_1
 10
201.2137
 20
-335.5563
  0
VERTEX
  8
LAYER_1
 10
179.7805
 20
-329.7393
  0
VERTEX
  8
LAYER_1
 10
227.9239
 20
-229.5044
  0
VERTEX
  8
LAYER_1
 10
229.8541
 20
-230.0282
  0
SEQEND
  0
ENDBLK
  0
BLOCK
  8
LAYER_1
  2
AIGNBL0103000E
 70
64
 10
0
 20
0
 30
0
  3
AIGNBL0103000E
  0
POLYLINE
  8
LAYER_1
 40
0.2469
 41
0.2469
 66
1
 10
0
 20
0
 30
0
 70
1
  0
VERTEX
  8
LAYER_1
 10
240.0001
 20
-215.6408
  0
VERTEX
  8
LAYER_1
 10
334.9233
 20
-18.0799
  0
VERTEX
  8
LAYER_1
 10
340.0666
 20
-18.3516
  0
VERTEX
  8
LAYER_1
 10
250.2854
 20
-345.9297
  0
VERTEX
  8
LAYER_1
 10
248.8444
 20
-346.3462
  0
SEQEND
  0
ENDBLK
  0
BLOCK
  8
LAYER_1
  2
AIGNBL01030010
 70
64
 10
0
 20
0
 30
0
  3
AIGNBL01030010
  0
POLYLINE
  8
LAYER_1
 40
0.2469
 41
0.2469
 66
1
 10
0
 20
0
 30
0
 70
1
  0
VERTEX
  8
LAYER_1
 10
6.9709
 20
-343.8566
  0
VERTEX
  8
LAYER_1
 10
4.1414
 20
-15.1809
  0
VERTEX
  8
LAYER_1
 10
7.1413
 20
-15.1551
  0
VERTEX
  8
LAYER_1
 10
95.597
 20
-343.0936
  0
SEQEND
  0
ENDBLK
  0
BLOCK
  8
LAYER_1
  2
AIGNBL01030012
 70
64
 10
0
 20
0
 30
0
  3
AIGNBL01030012
  0
POLYLINE
  8
LAYER_1
 40
0.2469
 41
0.2469
 66
1
 10
0
 20
0
 30
0
 70
1
  0
VERTEX
  8
LAYER_1
 10
235.2917
 20
-336.2866
  0
VERTEX
  8
LAYER_1
 10
213.0953
 20
-335.5512
  0
VERTEX
  8
LAYER_1
 10
236.9137
 20
-226.9349
  0
VERTEX
  8
LAYER_1
 10
238.9126
 20
-227.0011
  0
SEQEND
  0
ENDBLK
  0
BLOCK
  8
LAYER_1
  2
AIGNBL01030014
 70
64
 10
0
 20
0
 30
0
  3
AIGNBL01030014
  0
POLYLINE
  8
LAYER_1
 40
0.2469
 41
0.2469
 66
1
 10
0
 20
0
 30
0
 70
1
  0
VERTEX
  8
LAYER_1
 10
134.2519
 20
-337.6728
  0
VERTEX
  8
LAYER_1
 10
105.5331
 20
-346.3462
  0
VERTEX
  8
LAYER_1
 10
42.6832
 20
-138.2423
  0
VERTEX
  8
LAYER_1
 10
44.5978
 20
-137.6641
  0
SEQEND
  0
ENDBLK
  0
BLOCK
  8
LAYER_1
  2
AIGNBL01030016
 70
64
 10
0
 20
0
 30
0
  3
AIGNBL01030016
  0
POLYLINE
  8
LAYER_1
 40
0.2469
 41
0.2469
 66
1
 10
0
 20
0
 30
0
 70
1
  0
VERTEX
  8
LAYER_1
 10
183.6599
 20
-294.4643
  0
VERTEX
  8
LAYER_1
 10
29.4374
 20
-5.0794
  0
VERTEX
  8
LAYER_1
 10
182.8445
 20
-3.5945
  0
VERTEX
  8
LAYER_1
 10
185.6598
 20
-294.445
  0
SEQEND
  0
ENDBLK
  0
BLOCK
  8
LAYER_1
  2
AIGNBL01020003
 70
64
 10
0
 20
0
 30
0
  3
AIGNBL01020003
  0
INSERT
  8
LAYER_1
  2
AIGNBL01030004
 10
0
 20
0
 30
0
  0
ENDBLK
  0
BLOCK
  8
LAYER_1
  2
AIGNBL01020005
 70
64
 10
0
 20
0
 30
0
  3
AIGNBL01020005
  0
INSERT
  8
LAYER_1
  2
AIGNBL01030006
 10
0
 20
0
 30
0
  0
ENDBLK
  0
BLOCK
  8
LAYER_1
  2
AIGNBL01020007
 70
64
 10
0
 20
0
 30
0
  3
AIGNBL01020007
  0
INSERT
  8
LAYER_1
  2
AIGNBL01030008
 10
0
 20
0
 30
0
  0
ENDBLK
  0
BLOCK
  8
LAYER_1
  2
AIGNBL01020009
 70
64
 10
0
 20
0
 30
0
  3
AIGNBL01020009
  0
INSERT
  8
LAYER_1
  2
AIGNBL0103000A
 10
0
 20
0
 30
0
  0
ENDBLK
  0
BLOCK
  8
LAYER_1
  2
AIGNBL0102000B
 70
64
 10
0
 20
0
 30
0
  3
AIGNBL0102000B
  0
INSERT
  8
LAYER_1
  2
AIGNBL0103000C
 10
0
 20
0
 30
0
  0
ENDBLK
  0
BLOCK
  8
LAYER_1
  2
AIGNBL0102000D
 70
64
 10
0
 20
0
 30
0
  3
AIGNBL0102000D
  0
INSERT
  8
LAYER_1
  2
AIGNBL0103000E
 10
0
 20
0
 30
0
  0
ENDBLK
  0
BLOCK
  8
LAYER_1
  2
AIGNBL0102000F
 70
64
 10
0
 20
0
 30
0
  3
AIGNBL0102000F
  0
INSERT
  8
LAYER_1
  2
AIGNBL01030010
 10
0
 20
0
 30
0
  0
ENDBLK
  0
BLOCK
  8
LAYER_1
  2
AIGNBL01020011
 70
64
 10
0
 20
0
 30
0
  3
AIGNBL01020011
  0
INSERT
  8
LAYER_1
  2
AIGNBL01030012
 10
0
 20
0
 30
0
  0
ENDBLK
  0
BLOCK
  8
LAYER_1
  2
AIGNBL01020013
 70
64
 10
0
 20
0
 30
0
  3
AIGNBL01020013
  0
INSERT
  8
LAYER_1
  2
AIGNBL01030014
 10
0
 20
0
 30
0
  0
ENDBLK
  0
BLOCK
  8
LAYER_1
  2
AIGNBL01020015
 70
64
 10
0
 20
0
 30
0
  3
AIGNBL01020015
  0
INSERT
  8
LAYER_1
  2
AIGNBL01030016
 10
0
 20
0
 30
0
  0
ENDBLK
  0
BLOCK
  8
LAYER_1
  2
AIGNBL01010002
 70
64
 10
0
 20
0
 30
0
  3
AIGNBL01010002
  0
INSERT
  8
LAYER_1
  2
AIGNBL01020003
 10
0
 20
0
 30
0
  0
INSERT
  8
LAYER_1
  2
AIGNBL01020005
 10
0
 20
0
 30
0
  0
INSERT
  8
LAYER_1
  2
AIGNBL01020007
 10
0
 20
0
 30
0
  0
INSERT
  8
LAYER_1
  2
AIGNBL01020009
 10
0
 20
0
 30
0
  0
INSERT
  8
LAYER_1
  2
AIGNBL0102000B
 10
0
 20
0
 30
0
  0
INSERT
  8
LAYER_1
  2
AIGNBL0102000D
 10
0
 20
0
 30
0
  0
INSERT
  8
LAYER_1
  2
AIGNBL0102000F
 10
0
 20
0
 30
0
  0
INSERT
  8
LAYER_1
  2
AIGNBL01020011
 10
0
 20
0
 30
0
  0
INSERT
  8
LAYER_1
  2
AIGNBL01020013
 10
0
 20
0
 30
0
  0
INSERT
  8
LAYER_1
  2
AIGNBL01020015
 10
0
 20
0
 30
0
  0
ENDBLK
  0
ENDSEC
  0
SECTION
  2
ENTITIES
  0
INSERT
  8
LAYER_1
  2
AIGNBL01010002
 10
0
 20
0
 30
0
  0
ENDSEC
  0
EOF
