0
SECTION
2
HEADER
9
$INSUNITS
70
4
9
$ACADVER
1
AC1014
9
$HANDSEED
5
FFFF
0
ENDSEC
0
SECTION
2
TABLES
0
TABLE
2
VPORT
5
8
100
AcDbSymbolTable
0
ENDTAB
0
TABLE
2
LTYPE
5
5
100
AcDbSymbolTable
0
LTYPE
5
14
100
AcDbSymbolTableRecord
100
AcDbLinetypeTableRecord
2
BYBLOCK
70
0
0
LTYPE
5
15
100
AcDbSymbolTableRecord
100
AcDbLinetypeTableRecord
2
BYLAYER
70
0
0
ENDTAB
0
TABLE
2
LAYER
5
2
100
AcDbSymbolTable
70
2
0
LAYER
5
50
100
AcDbSymbolTableRecord
100
AcDbLayerTableRecord
2
0
70
0
6
CONTINUOUS
0
ENDTAB
0
TABLE
2
STYLE
5
3
100
AcDbSymbolTable
70
1
0
STYLE
5
11
100
AcDbSymbolTableRecord
100
AcDbTextStyleTableRecord
2
STANDARD
70
0
0
ENDTAB
0
TABLE
2
VIEW
5
6
100
AcDbSymbolTable
70
0
0
ENDTAB
0
TABLE
2
UCS
5
7
100
AcDbSymbolTable
70
0
0
ENDTAB
0
TABLE
2
APPID
5
9
100
AcDbSymbolTable
70
2
0
APPID
5
12
100
AcDbSymbolTableRecord
100
AcDbRegAppTableRecord
2
ACAD
70
0
0
ENDTAB
0
TABLE
2
DIMSTYLE
5
A
100
AcDbSymbolTable
70
1
0
ENDTAB
0
TABLE
2
BLOCK_RECORD
5
1
100
AcDbSymbolTable
70
1
0
BLOCK_RECORD
5
1F
100
AcDbSymbolTableRecord
100
AcDbBlockTableRecord
2
*MODEL_SPACE
0
BLOCK_RECORD
5
1B
100
AcDbSymbolTableRecord
100
AcDbBlockTableRecord
2
*PAPER_SPACE
0
ENDTAB
0
ENDSEC
0
SECTION
2
BLOCKS
0
BLOCK
5
20
100
AcDbEntity
100
AcDbBlockBegin
2
*MODEL_SPACE
0
ENDBLK
5
21
100
AcDbEntity
100
AcDbBlockEnd
0
BLOCK
5
1C
100
AcDbEntity
100
AcDbBlockBegin
2
*PAPER_SPACE
0
ENDBLK
5
1D
100
AcDbEntity
100
AcDbBlockEnd
0
ENDSEC
0
SECTION
2
ENTITIES
0
LWPOLYLINE
5
100
100
AcDbEntity
8
0
100
AcDbPolyline
90
4
70
1
43
0.0
10
-125.00000000000007
20
260
10
-125.00000000000007
20
-260
10
124.99999999999986
20
-260
10
124.99999999999989
20
260
0
LINE
5
101
100
AcDbEntity
8
0
100
AcDbLine
10
-57.000000000000064
20
-260
30
0
11
-57.000000000000064
21
260
31
0
0
LINE
5
102
100
AcDbEntity
8
0
100
AcDbLine
10
14.999999999999922
20
-260
30
0
11
14.999999999999886
21
260
31
0
0
LINE
5
103
100
AcDbEntity
8
0
100
AcDbLine
10
86.999999999999957
20
-260
30
0
11
86.999999999999915
21
260
31
0
0
LINE
5
104
100
AcDbEntity
8
0
100
AcDbLine
10
124.99999999999987
20
-144
30
0
11
-125.00000000000007
21
-144
31
0
0
LINE
5
105
100
AcDbEntity
8
0
100
AcDbLine
10
124.99999999999987
20
-71.999999999999957
30
0
11
-125.00000000000007
21
-72
31
0
0
LINE
5
106
100
AcDbEntity
8
0
100
AcDbLine
10
124.99999999999987
20
4.4408920985006262e-15
30
0
11
-125.00000000000007
21
0
31
0
0
LINE
5
107
100
AcDbEntity
8
0
100
AcDbLine
10
124.99999999999987
20
72.000000000000014
30
0
11
-125.00000000000007
21
72.000000000000028
31
0
0
LINE
5
108
100
AcDbEntity
8
0
100
AcDbLine
10
124.99999999999987
20
144.00000000000006
30
0
11
-125.00000000000007
21
144.00000000000006
31
0
0
LINE
5
109
100
AcDbEntity
8
0
100
AcDbLine
10
124.99999999999986
20
-240
30
0
11
-125.00000000000009
21
-240
31
0
0
LINE
5
110
100
AcDbEntity
8
0
100
AcDbLine
10
124.99999999999989
20
240
30
0
11
-125.00000000000006
21
240
31
0
0
LINE
5
111
100
AcDbEntity
8
0
100
AcDbLine
10
106.99999999994296
20
-164.00000000005829
30
0
11
66.999999999943057
21
-164.00000000005821
31
0
0
LINE
5
112
100
AcDbEntity
8
0
100
AcDbLine
10
66.999999999943057
20
-164.00000000005821
30
0
11
66.999999999942986
21
-124.00000000005818
31
0
0
LINE
5
113
100
AcDbEntity
8
0
100
AcDbLine
10
66.999999999942986
20
-124.00000000005818
30
0
11
106.99999999994297
21
-124.00000000005817
31
0
0
LINE
5
114
100
AcDbEntity
8
0
100
AcDbLine
10
106.99999999994297
20
-124.00000000005817
30
0
11
106.99999999994296
21
-164.00000000005829
31
0
0
LINE
5
115
100
AcDbEntity
8
0
100
AcDbLine
10
106.99999999994296
20
-164.00000000005829
30
0
11
66.999999999942986
21
-124.00000000005818
31
0
0
LINE
5
116
100
AcDbEntity
8
0
100
AcDbLine
10
66.999999999943057
20
-164.00000000005821
30
0
11
106.99999999994297
21
-124.00000000005817
31
0
0
LWPOLYLINE
5
117
100
AcDbEntity
8
0
100
AcDbPolyline
90
4
70
1
43
0.0
10
66.999999999942986
20
-52.000000000058165
10
66.999999999943057
20
-92.000000000058208
10
106.99999999994296
20
-92.000000000058279
10
106.99999999994297
20
-52.000000000058151
0
LWPOLYLINE
5
118
100
AcDbEntity
8
0
100
AcDbPolyline
90
4
70
1
43
0.0
10
66.999999999942986
20
19.999999999941835
10
66.999999999943057
20
-20.000000000058201
10
106.99999999994296
20
-20.000000000058265
10
106.99999999994297
20
19.999999999941849
0
LWPOLYLINE
5
119
100
AcDbEntity
8
0
100
AcDbPolyline
90
4
70
1
43
0.0
10
66.999999999942986
20
91.999999999941835
10
66.999999999943057
20
51.999999999941807
10
106.99999999994296
20
51.999999999941735
10
106.99999999994297
20
91.999999999941849
0
LWPOLYLINE
5
120
100
AcDbEntity
8
0
100
AcDbPolyline
90
4
70
1
43
0.0
10
66.999999999942986
20
163.99999999994185
10
66.999999999943057
20
123.99999999994181
10
106.99999999994296
20
123.99999999994174
10
106.99999999994297
20
163.99999999994185
0
LWPOLYLINE
5
121
100
AcDbEntity
8
0
100
AcDbPolyline
90
4
70
1
43
0.0
10
-5.0000000000570264
20
-124.00000000005818
10
-5.0000000000569544
20
-164.00000000005821
10
34.999999999942936
20
-164.00000000005829
10
34.999999999942958
20
-124.00000000005817
0
LWPOLYLINE
5
122
100
AcDbEntity
8
0
100
AcDbPolyline
90
4
70
1
43
0.0
10
-5.0000000000570264
20
-52.000000000058165
10
-5.0000000000569544
20
-92.000000000058208
10
34.999999999942936
20
-92.000000000058279
10
34.999999999942958
20
-52.000000000058151
0
LWPOLYLINE
5
123
100
AcDbEntity
8
0
100
AcDbPolyline
90
4
70
1
43
0.0
10
-5.0000000000570264
20
19.999999999941835
10
-5.0000000000569544
20
-20.000000000058201
10
34.999999999942936
20
-20.000000000058265
10
34.999999999942958
20
19.999999999941849
0
LWPOLYLINE
5
124
100
AcDbEntity
8
0
100
AcDbPolyline
90
4
70
1
43
0.0
10
-5.0000000000570264
20
91.999999999941835
10
-5.0000000000569544
20
51.999999999941807
10
34.999999999942936
20
51.999999999941735
10
34.999999999942958
20
91.999999999941849
0
LWPOLYLINE
5
125
100
AcDbEntity
8
0
100
AcDbPolyline
90
4
70
1
43
0.0
10
-5.0000000000570264
20
163.99999999994185
10
-5.0000000000569544
20
123.99999999994181
10
34.999999999942936
20
123.99999999994174
10
34.999999999942958
20
163.99999999994185
0
LWPOLYLINE
5
126
100
AcDbEntity
8
0
100
AcDbPolyline
90
4
70
1
43
0.0
10
-77.000000000057042
20
-124.00000000005818
10
-77.000000000056957
20
-164.00000000005821
10
-37.000000000057071
20
-164.00000000005829
10
-37.000000000057049
20
-124.00000000005817
0
LWPOLYLINE
5
127
100
AcDbEntity
8
0
100
AcDbPolyline
90
4
70
1
43
0.0
10
-77.000000000057042
20
-52.000000000058165
10
-77.000000000056957
20
-92.000000000058208
10
-37.000000000057071
20
-92.000000000058279
10
-37.000000000057049
20
-52.000000000058151
0
LWPOLYLINE
5
128
100
AcDbEntity
8
0
100
AcDbPolyline
90
4
70
1
43
0.0
10
-77.000000000057042
20
19.999999999941835
10
-77.000000000056957
20
-20.000000000058201
10
-37.000000000057071
20
-20.000000000058265
10
-37.000000000057049
20
19.999999999941849
0
LWPOLYLINE
5
129
100
AcDbEntity
8
0
100
AcDbPolyline
90
4
70
1
43
0.0
10
-77.000000000057042
20
91.999999999941835
10
-77.000000000056957
20
51.999999999941807
10
-37.000000000057071
20
51.999999999941735
10
-37.000000000057049
20
91.999999999941849
0
LWPOLYLINE
5
130
100
AcDbEntity
8
0
100
AcDbPolyline
90
4
70
1
43
0.0
10
-77.000000000057042
20
163.99999999994185
10
-77.000000000056957
20
123.99999999994181
10
-37.000000000057071
20
123.99999999994174
10
-37.000000000057049
20
163.99999999994185
0
ENDSEC
0
SECTION
2
OBJECTS
0
DICTIONARY
5
C
100
AcDbDictionary
3
ACAD_GROUP
350
D
3
ACAD_MLINESTYLE
350
17
0
DICTIONARY
5
D
100
AcDbDictionary
0
DICTIONARY
5
1A
330
C
100
AcDbDictionary
0
DICTIONARY
5
17
100
AcDbDictionary
0
ENDSEC
0
EOF
