0
SECTION
2
HEADER
9
$INSUNITS
70
4
9
$ACADVER
1
AC1014
9
$HANDSEED
5
FFFF
0
ENDSEC
0
SECTION
2
TABLES
0
TABLE
2
VPORT
5
8
100
AcDbSymbolTable
0
ENDTAB
0
TABLE
2
LTYPE
5
5
100
AcDbSymbolTable
0
LTYPE
5
14
100
AcDbSymbolTableRecord
100
AcDbLinetypeTableRecord
2
BYBLOCK
70
0
0
LTYPE
5
15
100
AcDbSymbolTableRecord
100
AcDbLinetypeTableRecord
2
BYLAYER
70
0
0
ENDTAB
0
TABLE
2
LAYER
5
2
100
AcDbSymbolTable
70
2
0
LAYER
5
50
100
AcDbSymbolTableRecord
100
AcDbLayerTableRecord
2
0
70
0
6
CONTINUOUS
0
ENDTAB
0
TABLE
2
STYLE
5
3
100
AcDbSymbolTable
70
1
0
STYLE
5
11
100
AcDbSymbolTableRecord
100
AcDbTextStyleTableRecord
2
STANDARD
70
0
0
ENDTAB
0
TABLE
2
VIEW
5
6
100
AcDbSymbolTable
70
0
0
ENDTAB
0
TABLE
2
UCS
5
7
100
AcDbSymbolTable
70
0
0
ENDTAB
0
TABLE
2
APPID
5
9
100
AcDbSymbolTable
70
2
0
APPID
5
12
100
AcDbSymbolTableRecord
100
AcDbRegAppTableRecord
2
ACAD
70
0
0
ENDTAB
0
TABLE
2
DIMSTYLE
5
A
100
AcDbSymbolTable
70
1
0
ENDTAB
0
TABLE
2
BLOCK_RECORD
5
1
100
AcDbSymbolTable
70
1
0
BLOCK_RECORD
5
1F
100
AcDbSymbolTableRecord
100
AcDbBlockTableRecord
2
*MODEL_SPACE
0
BLOCK_RECORD
5
1B
100
AcDbSymbolTableRecord
100
AcDbBlockTableRecord
2
*PAPER_SPACE
0
ENDTAB
0
ENDSEC
0
SECTION
2
BLOCKS
0
BLOCK
5
20
100
AcDbEntity
100
AcDbBlockBegin
2
*MODEL_SPACE
0
ENDBLK
5
21
100
AcDbEntity
100
AcDbBlockEnd
0
BLOCK
5
1C
100
AcDbEntity
100
AcDbBlockBegin
2
*PAPER_SPACE
0
ENDBLK
5
1D
100
AcDbEntity
100
AcDbBlockEnd
0
ENDSEC
0
SECTION
2
ENTITIES
0
LWPOLYLINE
5
100
100
AcDbEntity
8
0
100
AcDbPolyline
90
4
70
1
43
0.0
10
-125.00000000000007
20
260
10
-125.00000000000007
20
-260
10
124.99999999999986
20
-260
10
124.99999999999989
20
260
0
LINE
5
101
100
AcDbEntity
8
0
100
AcDbLine
10
-57.000000000000064
20
-260
30
0
11
-57.000000000000064
21
260
31
0
0
LINE
5
102
100
AcDbEntity
8
0
100
AcDbLine
10
14.999999999999922
20
-260
30
0
11
14.999999999999886
21
260
31
0
0
LINE
5
103
100
AcDbEntity
8
0
100
AcDbLine
10
86.999999999999957
20
-260
30
0
11
86.999999999999915
21
260
31
0
0
LINE
5
104
100
AcDbEntity
8
0
100
AcDbLine
10
124.99999999999987
20
-144
30
0
11
-125.00000000000007
21
-144
31
0
0
LINE
5
105
100
AcDbEntity
8
0
100
AcDbLine
10
124.99999999999987
20
-71.999999999999957
30
0
11
-125.00000000000007
21
-72
31
0
0
LINE
5
106
100
AcDbEntity
8
0
100
AcDbLine
10
124.99999999999987
20
4.4408920985006262e-15
30
0
11
-125.00000000000007
21
0
31
0
0
LINE
5
107
100
AcDbEntity
8
0
100
AcDbLine
10
124.99999999999987
20
72.000000000000014
30
0
11
-125.00000000000007
21
72.000000000000028
31
0
0
LINE
5
108
100
AcDbEntity
8
0
100
AcDbLine
10
124.99999999999987
20
144.00000000000006
30
0
11
-125.00000000000007
21
144.00000000000006
31
0
0
LINE
5
109
100
AcDbEntity
8
0
100
AcDbLine
10
124.99999999999986
20
-240
30
0
11
-125.00000000000009
21
-240
31
0
0
LINE
5
110
100
AcDbEntity
8
0
100
AcDbLine
10
124.99999999999989
20
240
30
0
11
-125.00000000000006
21
240
31
0
0
LINE
5
111
100
AcDbEntity
8
0
100
AcDbLine
10
101.99999999999991
20
-157.99999999999997
30
0
11
71.999999999999929
21
-157.99999999999997
31
0
0
LINE
5
112
100
AcDbEntity
8
0
100
AcDbLine
10
71.999999999999929
20
-157.99999999999997
30
0
11
71.999999999999929
21
-129.99999999999997
31
0
0
LINE
5
113
100
AcDbEntity
8
0
100
AcDbLine
10
71.999999999999929
20
-129.99999999999997
30
0
11
101.99999999999991
21
-129.99999999999997
31
0
0
LINE
5
114
100
AcDbEntity
8
0
100
AcDbLine
10
101.99999999999991
20
-129.99999999999997
30
0
11
101.99999999999991
21
-157.99999999999997
31
0
0
LINE
5
115
100
AcDbEntity
8
0
100
AcDbLine
10
101.99999999999991
20
-157.99999999999997
30
0
11
71.999999999999929
21
-129.99999999999997
31
0
0
LINE
5
116
100
AcDbEntity
8
0
100
AcDbLine
10
71.999999999999929
20
-157.99999999999997
30
0
11
101.99999999999991
21
-129.99999999999997
31
0
0
LWPOLYLINE
5
117
100
AcDbEntity
8
0
100
AcDbPolyline
90
4
70
1
43
0.0
10
71.999999999999929
20
-57.999999999999957
10
71.999999999999929
20
-85.999999999999972
10
101.99999999999991
20
-85.999999999999972
10
101.99999999999991
20
-57.999999999999957
0
LWPOLYLINE
5
118
100
AcDbEntity
8
0
100
AcDbPolyline
90
4
70
1
43
0.0
10
71.999999999999929
20
14.000000000000043
10
71.999999999999929
20
-13.999999999999964
10
101.99999999999991
20
-13.999999999999964
10
101.99999999999991
20
14.000000000000043
0
LWPOLYLINE
5
119
100
AcDbEntity
8
0
100
AcDbPolyline
90
4
70
1
43
0.0
10
71.999999999999929
20
86.000000000000057
10
71.999999999999929
20
58.00000000000005
10
101.99999999999991
20
58.000000000000043
10
101.99999999999991
20
86.000000000000057
0
LWPOLYLINE
5
120
100
AcDbEntity
8
0
100
AcDbPolyline
90
4
70
1
43
0.0
10
71.999999999999929
20
158.00000000000006
10
71.999999999999929
20
130.00000000000003
10
101.99999999999991
20
130.00000000000003
10
101.99999999999991
20
158.00000000000006
0
LWPOLYLINE
5
121
100
AcDbEntity
8
0
100
AcDbPolyline
90
4
70
1
43
0.0
10
-7.8667654131017087e-14
20
-129.99999999999997
10
-7.5495165674510645e-14
20
-157.99999999999997
10
29.999999999999922
20
-157.99999999999997
10
29.999999999999922
20
-129.99999999999997
0
LWPOLYLINE
5
122
100
AcDbEntity
8
0
100
AcDbPolyline
90
4
70
1
43
0.0
10
-7.8667654131017087e-14
20
-57.999999999999957
10
-7.5495165674510645e-14
20
-85.999999999999972
10
29.999999999999922
20
-85.999999999999972
10
29.999999999999922
20
-57.999999999999957
0
LWPOLYLINE
5
123
100
AcDbEntity
8
0
100
AcDbPolyline
90
4
70
1
43
0.0
10
-7.8667654131017087e-14
20
14.000000000000043
10
-7.5495165674510645e-14
20
-13.999999999999964
10
29.999999999999922
20
-13.999999999999964
10
29.999999999999922
20
14.000000000000043
0
LWPOLYLINE
5
124
100
AcDbEntity
8
0
100
AcDbPolyline
90
4
70
1
43
0.0
10
-7.8667654131017087e-14
20
86.000000000000057
10
-7.5495165674510645e-14
20
58.00000000000005
10
29.999999999999922
20
58.000000000000043
10
29.999999999999922
20
86.000000000000057
0
LWPOLYLINE
5
125
100
AcDbEntity
8
0
100
AcDbPolyline
90
4
70
1
43
0.0
10
-7.8667654131017087e-14
20
158.00000000000006
10
-7.5495165674510645e-14
20
130.00000000000003
10
29.999999999999922
20
130.00000000000003
10
29.999999999999922
20
158.00000000000006
0
LWPOLYLINE
5
126
100
AcDbEntity
8
0
100
AcDbPolyline
90
4
70
1
43
0.0
10
-72.000000000000085
20
-129.99999999999997
10
-72.000000000000085
20
-157.99999999999997
10
-42.000000000000092
20
-157.99999999999997
10
-42.000000000000092
20
-129.99999999999997
0
LWPOLYLINE
5
127
100
AcDbEntity
8
0
100
AcDbPolyline
90
4
70
1
43
0.0
10
-72.000000000000085
20
-57.999999999999957
10
-72.000000000000085
20
-85.999999999999972
10
-42.000000000000092
20
-85.999999999999972
10
-42.000000000000092
20
-57.999999999999957
0
LWPOLYLINE
5
128
100
AcDbEntity
8
0
100
AcDbPolyline
90
4
70
1
43
0.0
10
-72.000000000000085
20
14.000000000000043
10
-72.000000000000085
20
-13.999999999999964
10
-42.000000000000092
20
-13.999999999999964
10
-42.000000000000092
20
14.000000000000043
0
LWPOLYLINE
5
129
100
AcDbEntity
8
0
100
AcDbPolyline
90
4
70
1
43
0.0
10
-72.000000000000085
20
86.000000000000057
10
-72.000000000000085
20
58.00000000000005
10
-42.000000000000092
20
58.000000000000043
10
-42.000000000000092
20
86.000000000000057
0
LWPOLYLINE
5
130
100
AcDbEntity
8
0
100
AcDbPolyline
90
4
70
1
43
0.0
10
-72.000000000000085
20
158.00000000000006
10
-72.000000000000085
20
130.00000000000003
10
-42.000000000000092
20
130.00000000000003
10
-42.000000000000092
20
158.00000000000006
0
ENDSEC
0
SECTION
2
OBJECTS
0
DICTIONARY
5
C
100
AcDbDictionary
3
ACAD_GROUP
350
D
3
ACAD_MLINESTYLE
350
17
0
DICTIONARY
5
D
100
AcDbDictionary
0
DICTIONARY
5
1A
330
C
100
AcDbDictionary
0
DICTIONARY
5
17
100
AcDbDictionary
0
ENDSEC
0
EOF
