0
SECTION
2
HEADER
9
$INSUNITS
70
4
9
$ACADVER
1
AC1014
9
$HANDSEED
5
FFFF
0
ENDSEC
0
SECTION
2
TABLES
0
TABLE
2
VPORT
5
8
100
AcDbSymbolTable
0
ENDTAB
0
TABLE
2
LTYPE
5
5
100
AcDbSymbolTable
0
LTYPE
5
14
100
AcDbSymbolTableRecord
100
AcDbLinetypeTableRecord
2
BYBLOCK
70
0
0
LTYPE
5
15
100
AcDbSymbolTableRecord
100
AcDbLinetypeTableRecord
2
BYLAYER
70
0
0
ENDTAB
0
TABLE
2
LAYER
5
2
100
AcDbSymbolTable
70
2
0
LAYER
5
50
100
AcDbSymbolTableRecord
100
AcDbLayerTableRecord
2
0
70
0
6
CONTINUOUS
0
ENDTAB
0
TABLE
2
STYLE
5
3
100
AcDbSymbolTable
70
1
0
STYLE
5
11
100
AcDbSymbolTableRecord
100
AcDbTextStyleTableRecord
2
STANDARD
70
0
0
ENDTAB
0
TABLE
2
VIEW
5
6
100
AcDbSymbolTable
70
0
0
ENDTAB
0
TABLE
2
UCS
5
7
100
AcDbSymbolTable
70
0
0
ENDTAB
0
TABLE
2
APPID
5
9
100
AcDbSymbolTable
70
2
0
APPID
5
12
100
AcDbSymbolTableRecord
100
AcDbRegAppTableRecord
2
ACAD
70
0
0
ENDTAB
0
TABLE
2
DIMSTYLE
5
A
100
AcDbSymbolTable
70
1
0
ENDTAB
0
TABLE
2
BLOCK_RECORD
5
1
100
AcDbSymbolTable
70
1
0
BLOCK_RECORD
5
1F
100
AcDbSymbolTableRecord
100
AcDbBlockTableRecord
2
*MODEL_SPACE
0
BLOCK_RECORD
5
1B
100
AcDbSymbolTableRecord
100
AcDbBlockTableRecord
2
*PAPER_SPACE
0
ENDTAB
0
ENDSEC
0
SECTION
2
BLOCKS
0
BLOCK
5
20
100
AcDbEntity
100
AcDbBlockBegin
2
*MODEL_SPACE
0
ENDBLK
5
21
100
AcDbEntity
100
AcDbBlockEnd
0
BLOCK
5
1C
100
AcDbEntity
100
AcDbBlockBegin
2
*PAPER_SPACE
0
ENDBLK
5
1D
100
AcDbEntity
100
AcDbBlockEnd
0
ENDSEC
0
SECTION
2
ENTITIES
0
LWPOLYLINE
5
100
100
AcDbEntity
8
0
100
AcDbPolyline
90
4
70
1
43
0.0
10
-125.00000000000007
20
260
10
-125.00000000000007
20
-260
10
124.99999999999986
20
-260
10
124.99999999999989
20
260
0
LINE
5
101
100
AcDbEntity
8
0
100
AcDbLine
10
-57.000000000000064
20
-260
30
0
11
-57.000000000000064
21
260
31
0
0
LINE
5
102
100
AcDbEntity
8
0
100
AcDbLine
10
14.999999999999922
20
-260
30
0
11
14.999999999999886
21
260
31
0
0
LINE
5
103
100
AcDbEntity
8
0
100
AcDbLine
10
86.999999999999957
20
-260
30
0
11
86.999999999999915
21
260
31
0
0
LINE
5
104
100
AcDbEntity
8
0
100
AcDbLine
10
124.99999999999987
20
-144
30
0
11
-125.00000000000007
21
-144
31
0
0
LINE
5
105
100
AcDbEntity
8
0
100
AcDbLine
10
124.99999999999987
20
-71.999999999999957
30
0
11
-125.00000000000007
21
-72
31
0
0
LINE
5
106
100
AcDbEntity
8
0
100
AcDbLine
10
124.99999999999987
20
4.4408920985006262e-15
30
0
11
-125.00000000000007
21
0
31
0
0
LINE
5
107
100
AcDbEntity
8
0
100
AcDbLine
10
124.99999999999987
20
72.000000000000014
30
0
11
-125.00000000000007
21
72.000000000000028
31
0
0
LINE
5
108
100
AcDbEntity
8
0
100
AcDbLine
10
124.99999999999987
20
144.00000000000006
30
0
11
-125.00000000000007
21
144.00000000000006
31
0
0
LINE
5
109
100
AcDbEntity
8
0
100
AcDbLine
10
124.99999999999986
20
-240
30
0
11
-125.00000000000009
21
-240
31
0
0
LINE
5
110
100
AcDbEntity
8
0
100
AcDbLine
10
124.99999999999989
20
240
30
0
11
-125.00000000000006
21
240
31
0
0
LINE
5
111
100
AcDbEntity
8
0
100
AcDbLine
10
108.49999999999994
20
-165.5
30
0
11
65.499999999999986
21
-165.49999999999994
31
0
0
LINE
5
112
100
AcDbEntity
8
0
100
AcDbLine
10
65.499999999999986
20
-165.49999999999994
30
0
11
65.499999999999957
21
-122.49999999999994
31
0
0
LINE
5
113
100
AcDbEntity
8
0
100
AcDbLine
10
65.499999999999957
20
-122.49999999999994
30
0
11
108.49999999999996
21
-122.49999999999997
31
0
0
LINE
5
114
100
AcDbEntity
8
0
100
AcDbLine
10
108.49999999999996
20
-122.49999999999997
30
0
11
108.49999999999994
21
-165.5
31
0
0
LINE
5
115
100
AcDbEntity
8
0
100
AcDbLine
10
108.49999999999994
20
-165.5
30
0
11
65.499999999999957
21
-122.49999999999994
31
0
0
LINE
5
116
100
AcDbEntity
8
0
100
AcDbLine
10
65.499999999999986
20
-165.49999999999994
30
0
11
108.49999999999996
21
-122.49999999999997
31
0
0
LWPOLYLINE
5
117
100
AcDbEntity
8
0
100
AcDbPolyline
90
4
70
1
43
0.0
10
65.499999999999957
20
-50.499999999999957
10
65.499999999999986
20
-93.499999999999943
10
108.49999999999994
20
-93.500000000000028
10
108.49999999999996
20
-50.499999999999964
0
LWPOLYLINE
5
118
100
AcDbEntity
8
0
100
AcDbPolyline
90
4
70
1
43
0.0
10
65.499999999999957
20
21.500000000000057
10
65.499999999999986
20
-21.499999999999932
10
108.49999999999994
20
-21.500000000000014
10
108.49999999999996
20
21.500000000000039
0
LWPOLYLINE
5
119
100
AcDbEntity
8
0
100
AcDbPolyline
90
4
70
1
43
0.0
10
65.499999999999957
20
93.500000000000071
10
65.499999999999986
20
50.500000000000078
10
108.49999999999994
20
50.5
10
108.49999999999996
20
93.500000000000057
0
LWPOLYLINE
5
120
100
AcDbEntity
8
0
100
AcDbPolyline
90
4
70
1
43
0.0
10
65.499999999999957
20
165.50000000000009
10
65.499999999999986
20
122.50000000000007
10
108.49999999999994
20
122.49999999999999
10
108.49999999999996
20
165.50000000000009
0
LWPOLYLINE
5
121
100
AcDbEntity
8
0
100
AcDbPolyline
90
4
70
1
43
0.0
10
-6.5000000000000471
20
-122.49999999999994
10
-6.5000000000000169
20
-165.49999999999994
10
36.499999999999936
20
-165.5
10
36.499999999999943
20
-122.49999999999997
0
LWPOLYLINE
5
122
100
AcDbEntity
8
0
100
AcDbPolyline
90
4
70
1
43
0.0
10
-6.5000000000000471
20
-50.499999999999957
10
-6.5000000000000169
20
-93.499999999999943
10
36.499999999999936
20
-93.500000000000028
10
36.499999999999943
20
-50.499999999999964
0
LWPOLYLINE
5
123
100
AcDbEntity
8
0
100
AcDbPolyline
90
4
70
1
43
0.0
10
-6.5000000000000471
20
21.500000000000057
10
-6.5000000000000169
20
-21.499999999999932
10
36.499999999999936
20
-21.500000000000014
10
36.499999999999943
20
21.500000000000039
0
LWPOLYLINE
5
124
100
AcDbEntity
8
0
100
AcDbPolyline
90
4
70
1
43
0.0
10
-6.5000000000000471
20
93.500000000000071
10
-6.5000000000000169
20
50.500000000000078
10
36.499999999999936
20
50.5
10
36.499999999999943
20
93.500000000000057
0
LWPOLYLINE
5
125
100
AcDbEntity
8
0
100
AcDbPolyline
90
4
70
1
43
0.0
10
-6.5000000000000471
20
165.50000000000009
10
-6.5000000000000169
20
122.50000000000007
10
36.499999999999936
20
122.49999999999999
10
36.499999999999943
20
165.50000000000009
0
LWPOLYLINE
5
126
100
AcDbEntity
8
0
100
AcDbPolyline
90
4
70
1
43
0.0
10
-78.500000000000057
20
-122.49999999999994
10
-78.500000000000028
20
-165.49999999999994
10
-35.500000000000071
20
-165.5
10
-35.500000000000071
20
-122.49999999999997
0
LWPOLYLINE
5
127
100
AcDbEntity
8
0
100
AcDbPolyline
90
4
70
1
43
0.0
10
-78.500000000000057
20
-50.499999999999957
10
-78.500000000000028
20
-93.499999999999943
10
-35.500000000000071
20
-93.500000000000028
10
-35.500000000000071
20
-50.499999999999964
0
LWPOLYLINE
5
128
100
AcDbEntity
8
0
100
AcDbPolyline
90
4
70
1
43
0.0
10
-78.500000000000057
20
21.500000000000057
10
-78.500000000000028
20
-21.499999999999932
10
-35.500000000000071
20
-21.500000000000014
10
-35.500000000000071
20
21.500000000000039
0
LWPOLYLINE
5
129
100
AcDbEntity
8
0
100
AcDbPolyline
90
4
70
1
43
0.0
10
-78.500000000000057
20
93.500000000000071
10
-78.500000000000028
20
50.500000000000078
10
-35.500000000000071
20
50.5
10
-35.500000000000071
20
93.500000000000057
0
LWPOLYLINE
5
130
100
AcDbEntity
8
0
100
AcDbPolyline
90
4
70
1
43
0.0
10
-78.500000000000057
20
165.50000000000009
10
-78.500000000000028
20
122.50000000000007
10
-35.500000000000071
20
122.49999999999999
10
-35.500000000000071
20
165.50000000000009
0
ENDSEC
0
SECTION
2
OBJECTS
0
DICTIONARY
5
C
100
AcDbDictionary
3
ACAD_GROUP
350
D
3
ACAD_MLINESTYLE
350
17
0
DICTIONARY
5
D
100
AcDbDictionary
0
DICTIONARY
5
1A
330
C
100
AcDbDictionary
0
DICTIONARY
5
17
100
AcDbDictionary
0
ENDSEC
0
EOF
